<mxfile host="Electron" modified="2023-12-15T02:14:09.405Z" agent="Mozilla/5.0 (X11; Linux x86_64) AppleWebKit/537.36 (KHTML, like Gecko) draw.io/22.1.2 Chrome/114.0.5735.289 Electron/25.9.4 Safari/537.36" etag="Lfwhenltn1rWjUSL35P6" version="22.1.2" type="device" pages="2">
  <diagram name="Page-1" id="RudBaYdcF-cu4xIUmOlX">
    <mxGraphModel dx="911" dy="565" grid="1" gridSize="10" guides="1" tooltips="1" connect="1" arrows="1" fold="1" page="1" pageScale="1" pageWidth="850" pageHeight="1100" math="0" shadow="0">
      <root>
        <mxCell id="0" />
        <mxCell id="1" parent="0" />
        <mxCell id="Zx_w4iM8Z6PwYRo-h5kX-6" value="rcs" style="shape=umlFrame;whiteSpace=wrap;html=1;pointerEvents=0;" vertex="1" parent="1">
          <mxGeometry x="210" y="30" width="500" height="640" as="geometry" />
        </mxCell>
        <mxCell id="Zx_w4iM8Z6PwYRo-h5kX-9" value="" style="edgeStyle=orthogonalEdgeStyle;rounded=0;orthogonalLoop=1;jettySize=auto;html=1;" edge="1" parent="1" source="Zx_w4iM8Z6PwYRo-h5kX-7" target="Zx_w4iM8Z6PwYRo-h5kX-8">
          <mxGeometry relative="1" as="geometry" />
        </mxCell>
        <mxCell id="Zx_w4iM8Z6PwYRo-h5kX-14" value="" style="edgeStyle=orthogonalEdgeStyle;rounded=0;orthogonalLoop=1;jettySize=auto;html=1;" edge="1" parent="1" source="Zx_w4iM8Z6PwYRo-h5kX-7" target="Zx_w4iM8Z6PwYRo-h5kX-13">
          <mxGeometry relative="1" as="geometry" />
        </mxCell>
        <mxCell id="Zx_w4iM8Z6PwYRo-h5kX-7" value="commander" style="rounded=1;whiteSpace=wrap;html=1;" vertex="1" parent="1">
          <mxGeometry x="500" y="50" width="110" height="50" as="geometry" />
        </mxCell>
        <mxCell id="Zx_w4iM8Z6PwYRo-h5kX-8" value="navigator" style="rounded=1;whiteSpace=wrap;html=1;" vertex="1" parent="1">
          <mxGeometry x="500" y="160" width="110" height="50" as="geometry" />
        </mxCell>
        <mxCell id="Zx_w4iM8Z6PwYRo-h5kX-16" value="" style="edgeStyle=orthogonalEdgeStyle;rounded=0;orthogonalLoop=1;jettySize=auto;html=1;" edge="1" parent="1" source="Zx_w4iM8Z6PwYRo-h5kX-13" target="Zx_w4iM8Z6PwYRo-h5kX-15">
          <mxGeometry relative="1" as="geometry" />
        </mxCell>
        <mxCell id="Zx_w4iM8Z6PwYRo-h5kX-17" value="" style="edgeStyle=orthogonalEdgeStyle;rounded=0;orthogonalLoop=1;jettySize=auto;html=1;" edge="1" parent="1" source="Zx_w4iM8Z6PwYRo-h5kX-13" target="Zx_w4iM8Z6PwYRo-h5kX-15">
          <mxGeometry relative="1" as="geometry" />
        </mxCell>
        <mxCell id="Zx_w4iM8Z6PwYRo-h5kX-19" value="" style="edgeStyle=orthogonalEdgeStyle;rounded=0;orthogonalLoop=1;jettySize=auto;html=1;" edge="1" parent="1" source="Zx_w4iM8Z6PwYRo-h5kX-13" target="Zx_w4iM8Z6PwYRo-h5kX-15">
          <mxGeometry relative="1" as="geometry" />
        </mxCell>
        <mxCell id="Zx_w4iM8Z6PwYRo-h5kX-20" value="" style="edgeStyle=orthogonalEdgeStyle;rounded=0;orthogonalLoop=1;jettySize=auto;html=1;" edge="1" parent="1" source="Zx_w4iM8Z6PwYRo-h5kX-13" target="Zx_w4iM8Z6PwYRo-h5kX-15">
          <mxGeometry relative="1" as="geometry" />
        </mxCell>
        <mxCell id="Zx_w4iM8Z6PwYRo-h5kX-21" value="" style="edgeStyle=orthogonalEdgeStyle;rounded=0;orthogonalLoop=1;jettySize=auto;html=1;" edge="1" parent="1" source="Zx_w4iM8Z6PwYRo-h5kX-13" target="Zx_w4iM8Z6PwYRo-h5kX-15">
          <mxGeometry relative="1" as="geometry" />
        </mxCell>
        <mxCell id="Zx_w4iM8Z6PwYRo-h5kX-22" style="edgeStyle=orthogonalEdgeStyle;rounded=0;orthogonalLoop=1;jettySize=auto;html=1;entryX=0.5;entryY=0;entryDx=0;entryDy=0;" edge="1" parent="1" source="Zx_w4iM8Z6PwYRo-h5kX-13" target="Zx_w4iM8Z6PwYRo-h5kX-23">
          <mxGeometry relative="1" as="geometry">
            <mxPoint x="1070" y="160" as="targetPoint" />
          </mxGeometry>
        </mxCell>
        <mxCell id="Zx_w4iM8Z6PwYRo-h5kX-26" style="edgeStyle=orthogonalEdgeStyle;rounded=0;orthogonalLoop=1;jettySize=auto;html=1;exitX=0.5;exitY=1;exitDx=0;exitDy=0;" edge="1" parent="1" source="Zx_w4iM8Z6PwYRo-h5kX-13" target="Zx_w4iM8Z6PwYRo-h5kX-24">
          <mxGeometry relative="1" as="geometry" />
        </mxCell>
        <mxCell id="Zx_w4iM8Z6PwYRo-h5kX-27" style="edgeStyle=orthogonalEdgeStyle;rounded=0;orthogonalLoop=1;jettySize=auto;html=1;entryX=0.5;entryY=0;entryDx=0;entryDy=0;exitX=0.5;exitY=1;exitDx=0;exitDy=0;" edge="1" parent="1" source="Zx_w4iM8Z6PwYRo-h5kX-13" target="Zx_w4iM8Z6PwYRo-h5kX-25">
          <mxGeometry relative="1" as="geometry" />
        </mxCell>
        <mxCell id="Zx_w4iM8Z6PwYRo-h5kX-13" value="commander_main()" style="rounded=1;whiteSpace=wrap;html=1;" vertex="1" parent="1">
          <mxGeometry x="950" y="50" width="110" height="50" as="geometry" />
        </mxCell>
        <mxCell id="Zx_w4iM8Z6PwYRo-h5kX-29" value="" style="edgeStyle=orthogonalEdgeStyle;rounded=0;orthogonalLoop=1;jettySize=auto;html=1;" edge="1" parent="1" source="Zx_w4iM8Z6PwYRo-h5kX-15" target="Zx_w4iM8Z6PwYRo-h5kX-28">
          <mxGeometry relative="1" as="geometry" />
        </mxCell>
        <mxCell id="Zx_w4iM8Z6PwYRo-h5kX-15" value="start()" style="rounded=1;whiteSpace=wrap;html=1;" vertex="1" parent="1">
          <mxGeometry x="880" y="150" width="110" height="50" as="geometry" />
        </mxCell>
        <mxCell id="Zx_w4iM8Z6PwYRo-h5kX-23" value="status()" style="rounded=1;whiteSpace=wrap;html=1;" vertex="1" parent="1">
          <mxGeometry x="1010" y="150" width="110" height="50" as="geometry" />
        </mxCell>
        <mxCell id="Zx_w4iM8Z6PwYRo-h5kX-24" value="stop()" style="rounded=1;whiteSpace=wrap;html=1;" vertex="1" parent="1">
          <mxGeometry x="1140" y="150" width="110" height="50" as="geometry" />
        </mxCell>
        <mxCell id="Zx_w4iM8Z6PwYRo-h5kX-25" value="custom_command()" style="rounded=1;whiteSpace=wrap;html=1;" vertex="1" parent="1">
          <mxGeometry x="1270" y="150" width="110" height="50" as="geometry" />
        </mxCell>
        <mxCell id="Zx_w4iM8Z6PwYRo-h5kX-31" value="" style="edgeStyle=orthogonalEdgeStyle;rounded=0;orthogonalLoop=1;jettySize=auto;html=1;" edge="1" parent="1" source="Zx_w4iM8Z6PwYRo-h5kX-28" target="Zx_w4iM8Z6PwYRo-h5kX-30">
          <mxGeometry relative="1" as="geometry" />
        </mxCell>
        <mxCell id="Zx_w4iM8Z6PwYRo-h5kX-28" value="task_spawn()" style="rounded=1;whiteSpace=wrap;html=1;" vertex="1" parent="1">
          <mxGeometry x="880" y="240" width="110" height="50" as="geometry" />
        </mxCell>
        <mxCell id="Zx_w4iM8Z6PwYRo-h5kX-33" value="" style="edgeStyle=orthogonalEdgeStyle;rounded=0;orthogonalLoop=1;jettySize=auto;html=1;" edge="1" parent="1" source="Zx_w4iM8Z6PwYRo-h5kX-30" target="Zx_w4iM8Z6PwYRo-h5kX-32">
          <mxGeometry relative="1" as="geometry" />
        </mxCell>
        <mxCell id="Zx_w4iM8Z6PwYRo-h5kX-30" value="task_spawn_cmd()" style="rounded=1;whiteSpace=wrap;html=1;" vertex="1" parent="1">
          <mxGeometry x="880" y="320" width="110" height="50" as="geometry" />
        </mxCell>
        <mxCell id="Zx_w4iM8Z6PwYRo-h5kX-35" value="" style="edgeStyle=orthogonalEdgeStyle;rounded=0;orthogonalLoop=1;jettySize=auto;html=1;" edge="1" parent="1" source="Zx_w4iM8Z6PwYRo-h5kX-32" target="Zx_w4iM8Z6PwYRo-h5kX-34">
          <mxGeometry relative="1" as="geometry" />
        </mxCell>
        <mxCell id="Zx_w4iM8Z6PwYRo-h5kX-32" value="run_trampoline()" style="rounded=1;whiteSpace=wrap;html=1;" vertex="1" parent="1">
          <mxGeometry x="880" y="400" width="110" height="50" as="geometry" />
        </mxCell>
        <mxCell id="Zx_w4iM8Z6PwYRo-h5kX-37" value="" style="edgeStyle=orthogonalEdgeStyle;rounded=0;orthogonalLoop=1;jettySize=auto;html=1;" edge="1" parent="1" source="Zx_w4iM8Z6PwYRo-h5kX-34" target="Zx_w4iM8Z6PwYRo-h5kX-36">
          <mxGeometry relative="1" as="geometry" />
        </mxCell>
        <mxCell id="Zx_w4iM8Z6PwYRo-h5kX-34" value="instantiate()" style="rounded=1;whiteSpace=wrap;html=1;" vertex="1" parent="1">
          <mxGeometry x="880" y="480" width="110" height="50" as="geometry" />
        </mxCell>
        <mxCell id="Zx_w4iM8Z6PwYRo-h5kX-48" style="edgeStyle=orthogonalEdgeStyle;rounded=0;orthogonalLoop=1;jettySize=auto;html=1;exitX=1;exitY=0.5;exitDx=0;exitDy=0;entryX=0;entryY=0.5;entryDx=0;entryDy=0;endArrow=none;endFill=0;" edge="1" parent="1" source="Zx_w4iM8Z6PwYRo-h5kX-36" target="Zx_w4iM8Z6PwYRo-h5kX-47">
          <mxGeometry relative="1" as="geometry" />
        </mxCell>
        <mxCell id="Zx_w4iM8Z6PwYRo-h5kX-36" value="run()" style="rounded=1;whiteSpace=wrap;html=1;" vertex="1" parent="1">
          <mxGeometry x="880" y="560" width="110" height="50" as="geometry" />
        </mxCell>
        <mxCell id="Zx_w4iM8Z6PwYRo-h5kX-45" value="" style="endArrow=none;html=1;rounded=0;exitX=1;exitY=0.5;exitDx=0;exitDy=0;" edge="1" parent="1" source="Zx_w4iM8Z6PwYRo-h5kX-36" target="Zx_w4iM8Z6PwYRo-h5kX-46">
          <mxGeometry width="50" height="50" relative="1" as="geometry">
            <mxPoint x="1080" y="570" as="sourcePoint" />
            <mxPoint x="1100" y="585" as="targetPoint" />
          </mxGeometry>
        </mxCell>
        <mxCell id="Zx_w4iM8Z6PwYRo-h5kX-46" value="handle_command()" style="rounded=0;whiteSpace=wrap;html=1;" vertex="1" parent="1">
          <mxGeometry x="1060" y="562.5" width="120" height="45" as="geometry" />
        </mxCell>
        <mxCell id="Zx_w4iM8Z6PwYRo-h5kX-47" value="" style="rounded=0;whiteSpace=wrap;html=1;" vertex="1" parent="1">
          <mxGeometry x="1060" y="620" width="120" height="45" as="geometry" />
        </mxCell>
        <mxCell id="Zx_w4iM8Z6PwYRo-h5kX-49" value="handle command through mavlink" style="text;html=1;strokeColor=none;fillColor=none;align=left;verticalAlign=middle;whiteSpace=wrap;rounded=0;" vertex="1" parent="1">
          <mxGeometry x="1190" y="570" width="190" height="30" as="geometry" />
        </mxCell>
        <mxCell id="sgAOPDWMd4Yebp52ihxT-1" value="pub: &lt;br&gt;&lt;div style=&quot;&quot;&gt;&lt;span style=&quot;background-color: initial;&quot;&gt;vehicle_status&lt;/span&gt;&lt;/div&gt;vehicle_command" style="text;html=1;strokeColor=none;fillColor=none;align=left;verticalAlign=middle;whiteSpace=wrap;rounded=0;" vertex="1" parent="1">
          <mxGeometry x="440" y="106" width="110" height="50" as="geometry" />
        </mxCell>
      </root>
    </mxGraphModel>
  </diagram>
  <diagram id="ScrS5wy35UgFVZriFUrP" name="Page-2">
    <mxGraphModel dx="822" dy="531" grid="1" gridSize="10" guides="1" tooltips="1" connect="1" arrows="1" fold="1" page="1" pageScale="1" pageWidth="850" pageHeight="1100" math="0" shadow="0">
      <root>
        <mxCell id="0" />
        <mxCell id="1" parent="0" />
      </root>
    </mxGraphModel>
  </diagram>
</mxfile>
